<?xml version="1.0" standalone="no"?>
<!DOCTYPE svg PUBLIC "-//W3C//DTD SVG 20010904//EN"
 "http://www.w3.org/TR/2001/REC-SVG-20010904/DTD/svg10.dtd">
<svg version="1.0" xmlns="http://www.w3.org/2000/svg"
 width="660.000000pt" height="960.000000pt" viewBox="0 0 660.000000 960.000000"
 preserveAspectRatio="xMidYMid meet">

<g transform="translate(0.000000,960.000000) scale(0.100000,-0.100000)"
fill="#000000" stroke="none">
<path d="M2985 9555 c-580 -66 -1027 -292 -1179 -594 -46 -90 -60 -145 -45
-172 10 -20 16 -21 88 -16 42 4 118 13 170 22 355 56 1140 87 1681 66 478 -18
698 -37 972 -82 147 -24 168 -20 168 36 0 84 -79 226 -185 330 -196 193 -528
334 -932 395 -180 28 -562 36 -738 15z"/>
<path d="M2951 8179 c-514 -26 -984 -117 -1363 -265 -930 -362 -1433 -1064
-1553 -2164 -27 -252 -35 -544 -35 -1325 0 -820 1 -828 53 -918 36 -61 107
-122 176 -149 l56 -23 3015 0 3015 0 56 23 c69 27 140 88 176 149 52 90 53 98
53 923 0 786 -8 1073 -36 1322 -121 1101 -623 1800 -1552 2162 -542 212 -1264
304 -2061 265z m601 -867 c362 -98 640 -375 738 -737 33 -120 38 -330 12 -455
-85 -413 -406 -728 -819 -806 -117 -22 -325 -15 -435 14 -401 108 -700 438
-759 841 -16 114 -7 303 21 406 86 321 322 586 625 701 132 50 224 64 390 60
111 -3 170 -9 227 -24z"/>
<path d="M384 2630 c-168 -14 -258 -57 -316 -151 -57 -91 -60 -131 -65 -746
-9 -1076 22 -1315 195 -1504 111 -120 264 -179 547 -211 177 -19 4933 -19
5110 0 283 32 436 91 547 211 173 189 204 428 195 1504 -5 615 -8 655 -65 746
-35 58 -99 106 -165 126 -29 9 -104 20 -167 25 -136 11 -5678 11 -5816 0z"/>
</g>
</svg>
