<?xml version="1.0" standalone="no"?>
<!DOCTYPE svg PUBLIC "-//W3C//DTD SVG 20010904//EN"
 "http://www.w3.org/TR/2001/REC-SVG-20010904/DTD/svg10.dtd">
<svg version="1.0" xmlns="http://www.w3.org/2000/svg"
 width="48.000000pt" height="48.000000pt" viewBox="0 0 48.000000 48.000000"
 preserveAspectRatio="xMidYMid meet">

<g transform="translate(0.000000,48.000000) scale(0.100000,-0.100000)"
fill="#000000" stroke="none">
<path d="M55 466 c-48 -21 -55 -50 -55 -220 0 -244 2 -246 233 -246 245 0 247
2 247 233 0 246 -1 247 -237 247 -108 -1 -168 -5 -188 -14z m135 -131 l0 -45
-45 0 -45 0 0 45 0 45 45 0 45 0 0 -45z m190 0 l0 -45 -45 0 -45 0 0 45 0 45
45 0 45 0 0 -45z m-95 -95 l0 -45 -45 0 c-44 0 -45 1 -48 33 -5 54 2 64 50 60
l43 -3 0 -45z m-95 -95 l0 -45 -45 0 -45 0 0 45 0 45 45 0 45 0 0 -45z m190 0
l0 -45 -45 0 -45 0 0 45 0 45 45 0 45 0 0 -45z"/>
</g>
</svg>
